<svg width="80" height="86" viewBox="0 0 80 86" fill="none" xmlns="http://www.w3.org/2000/svg">
<path d="M9.38352 85.642V81.8281H10.0866C10.3281 81.608 10.5554 81.2972 10.7685 80.896C10.9851 80.4911 11.168 79.9513 11.3171 79.2766C11.4698 78.5984 11.571 77.7372 11.6207 76.6932L11.8551 72.0909H18.3324V81.8281H19.5895V85.6207H18.3324V83H10.6406V85.642H9.38352ZM11.6634 81.8281H17.0753V73.2628H13.0483L12.8778 76.6932C12.8352 77.4886 12.7607 78.2095 12.6541 78.8558C12.5476 79.4986 12.4109 80.0685 12.244 80.5657C12.0771 81.0593 11.8835 81.4801 11.6634 81.8281ZM21.4152 83V74.8182H24.7604C25.6411 74.8182 26.3406 75.017 26.8591 75.4148C27.3776 75.8125 27.6368 76.3381 27.6368 76.9915C27.6368 77.4886 27.4894 77.8739 27.1947 78.1474C26.8999 78.4173 26.5218 78.6001 26.0601 78.696C26.3619 78.7386 26.6549 78.8452 26.939 79.0156C27.2267 79.1861 27.4646 79.4205 27.6528 79.7188C27.841 80.0135 27.9351 80.3757 27.9351 80.8054C27.9351 81.2244 27.8286 81.5991 27.6155 81.9293C27.4024 82.2596 27.097 82.5206 26.6993 82.7124C26.3016 82.9041 25.8257 83 25.2718 83H21.4152ZM22.6084 81.8494H25.2718C25.705 81.8494 26.0441 81.7464 26.2892 81.5405C26.5342 81.3345 26.6567 81.054 26.6567 80.6989C26.6567 80.2763 26.5342 79.9442 26.2892 79.7028C26.0441 79.4577 25.705 79.3352 25.2718 79.3352H22.6084V81.8494ZM22.6084 78.2486H24.7604C25.0977 78.2486 25.3872 78.2024 25.6286 78.1101C25.8701 78.0142 26.0548 77.8793 26.1826 77.7053C26.314 77.5277 26.3797 77.3182 26.3797 77.0767C26.3797 76.7322 26.2359 76.4624 25.9482 76.267C25.6606 76.0682 25.2646 75.9688 24.7604 75.9688H22.6084V78.2486ZM33.1619 83.1705C32.4233 83.1705 31.7752 82.9947 31.2177 82.6431C30.6637 82.2915 30.2305 81.7997 29.918 81.1676C29.609 80.5355 29.4545 79.7969 29.4545 78.9517C29.4545 78.0994 29.609 77.3555 29.918 76.7198C30.2305 76.0842 30.6637 75.5906 31.2177 75.239C31.7752 74.8874 32.4233 74.7116 33.1619 74.7116C33.9006 74.7116 34.5469 74.8874 35.1009 75.239C35.6584 75.5906 36.0916 76.0842 36.4006 76.7198C36.7131 77.3555 36.8693 78.0994 36.8693 78.9517C36.8693 79.7969 36.7131 80.5355 36.4006 81.1676C36.0916 81.7997 35.6584 82.2915 35.1009 82.6431C34.5469 82.9947 33.9006 83.1705 33.1619 83.1705ZM33.1619 82.0412C33.723 82.0412 34.1847 81.8974 34.5469 81.6097C34.9091 81.3221 35.1772 80.9439 35.3512 80.4751C35.5252 80.0064 35.6122 79.4986 35.6122 78.9517C35.6122 78.4048 35.5252 77.8952 35.3512 77.4229C35.1772 76.9506 34.9091 76.5689 34.5469 76.2777C34.1847 75.9865 33.723 75.8409 33.1619 75.8409C32.6009 75.8409 32.1392 75.9865 31.777 76.2777C31.4148 76.5689 31.1467 76.9506 30.9727 77.4229C30.7987 77.8952 30.7116 78.4048 30.7116 78.9517C30.7116 79.4986 30.7987 80.0064 30.9727 80.4751C31.1467 80.9439 31.4148 81.3221 31.777 81.6097C32.1392 81.8974 32.6009 82.0412 33.1619 82.0412ZM40.0454 81.1463L43.9871 74.8182H45.436V83H44.1789V76.6719L40.2584 83H38.7883V74.8182H40.0454V81.1463ZM43.1562 72.0909H44.328C44.328 72.6662 44.1292 73.1367 43.7314 73.5025C43.3337 73.8683 42.7939 74.0511 42.1121 74.0511C41.441 74.0511 40.9065 73.8683 40.5088 73.5025C40.1146 73.1367 39.9175 72.6662 39.9175 72.0909H41.0894C41.0894 72.3679 41.1657 72.6112 41.3184 72.8207C41.4747 73.0302 41.7393 73.1349 42.1121 73.1349C42.485 73.1349 42.7513 73.0302 42.9111 72.8207C43.0745 72.6112 43.1562 72.3679 43.1562 72.0909ZM53.2143 78.3338V79.5057H48.6973V78.3338H53.2143ZM48.9956 74.8182V83H47.7385V74.8182H48.9956ZM54.1731 74.8182V83H52.916V74.8182H54.1731ZM59.7928 83.1705C59.0542 83.1705 58.4061 82.9947 57.8485 82.6431C57.2946 82.2915 56.8613 81.7997 56.5488 81.1676C56.2399 80.5355 56.0854 79.7969 56.0854 78.9517C56.0854 78.0994 56.2399 77.3555 56.5488 76.7198C56.8613 76.0842 57.2946 75.5906 57.8485 75.239C58.4061 74.8874 59.0542 74.7116 59.7928 74.7116C60.5314 74.7116 61.1777 74.8874 61.7317 75.239C62.2892 75.5906 62.7225 76.0842 63.0314 76.7198C63.3439 77.3555 63.5002 78.0994 63.5002 78.9517C63.5002 79.7969 63.3439 80.5355 63.0314 81.1676C62.7225 81.7997 62.2892 82.2915 61.7317 82.6431C61.1777 82.9947 60.5314 83.1705 59.7928 83.1705ZM59.7928 82.0412C60.3539 82.0412 60.8155 81.8974 61.1777 81.6097C61.54 81.3221 61.8081 80.9439 61.9821 80.4751C62.1561 80.0064 62.2431 79.4986 62.2431 78.9517C62.2431 78.4048 62.1561 77.8952 61.9821 77.4229C61.8081 76.9506 61.54 76.5689 61.1777 76.2777C60.8155 75.9865 60.3539 75.8409 59.7928 75.8409C59.2317 75.8409 58.7701 75.9865 58.4078 76.2777C58.0456 76.5689 57.7775 76.9506 57.6035 77.4229C57.4295 77.8952 57.3425 78.4048 57.3425 78.9517C57.3425 79.4986 57.4295 80.0064 57.6035 80.4751C57.7775 80.9439 58.0456 81.3221 58.4078 81.6097C58.7701 81.8974 59.2317 82.0412 59.7928 82.0412ZM66.6762 81.1463L70.618 74.8182H72.0669V83H70.8097V76.6719L66.8893 83H65.4191V74.8182H66.6762V81.1463ZM69.787 72.0909H70.9589C70.9589 72.6662 70.76 73.1367 70.3623 73.5025C69.9646 73.8683 69.4248 74.0511 68.743 74.0511C68.0718 74.0511 67.5374 73.8683 67.1396 73.5025C66.7455 73.1367 66.5484 72.6662 66.5484 72.0909H67.7203C67.7203 72.3679 67.7966 72.6112 67.9493 72.8207C68.1056 73.0302 68.3701 73.1349 68.743 73.1349C69.1159 73.1349 69.3822 73.0302 69.542 72.8207C69.7053 72.6112 69.787 72.3679 69.787 72.0909Z" fill="black"/>
<path d="M39.7031 21.1436C39.1875 21.1436 38.7422 20.8154 38.6719 20.3643C38.5469 19.5098 37.461 11.9561 38.7266 8.97559C39.2344 7.7793 41.1094 5.92676 43.5313 5.74219C44.9688 5.63281 47.0703 6.08399 48.9219 8.83203C49.6016 9.84375 50.6719 11.0264 51.9063 10.9033C52.4453 10.8486 53.0391 10.5479 53.5781 10.0488C54.0938 9.57715 54.4375 9.03711 54.5547 8.71582C55.0938 7.17774 54.711 2.71387 54.5156 1.1211C54.4531 0.635744 54.875 0.198244 55.4453 0.143556C56.0156 0.0957049 56.5313 0.444338 56.586 0.936525C56.6641 1.5586 57.3047 7.06836 56.5469 9.22852C56.1016 10.4863 54.3985 12.4482 52.1406 12.6738C51.9922 12.6875 51.8516 12.6943 51.711 12.6943C49.5781 12.6943 48.0469 11.1084 47.1172 9.7207C46.0703 8.16895 44.9219 7.42383 43.711 7.5127C42.2344 7.62207 40.9766 8.89356 40.6875 9.57715C39.7656 11.7647 40.4141 17.9375 40.7422 20.1387C40.8125 20.624 40.4141 21.0684 39.8438 21.1299C39.7891 21.1367 39.75 21.1436 39.7031 21.1436Z" fill="black" stroke="black" stroke-width="0.00233"/>
<path d="M39.875 18.3408C30.125 18.4092 22.1719 25.2314 22.1719 33.5645V53.0606C22.1719 61.4346 30.2031 68.291 40.0156 68.291C49.8281 68.291 57.8594 61.4346 57.8594 53.0606V36.1211H39.875V18.3408Z" fill="#FAFBFC" stroke="black" stroke-width="0.00233"/>
<path d="M40.0234 69.1797C35 69.1797 30.2578 67.4981 26.6797 64.4424C23.1016 61.3867 21.1328 57.3467 21.1328 53.0606V33.5645C21.1328 24.7529 29.5391 17.5205 39.8672 17.4522C40.1484 17.4522 40.4141 17.541 40.6094 17.7119C40.8047 17.876 40.9141 18.1084 40.9141 18.3408V35.2324H57.8594C58.4375 35.2324 58.8984 35.6289 58.8984 36.1211V53.0606C58.8984 57.3467 56.9297 61.3936 53.3516 64.4424C49.7812 67.4981 45.0469 69.1797 40.0234 69.1797ZM38.8359 19.2637C30.1328 19.79 23.2109 26.0244 23.2109 33.5645V53.0606C23.2109 56.875 24.9609 60.4707 28.1484 63.1914C31.3359 65.9121 35.5547 67.4023 40.0234 67.4023C44.4922 67.4023 48.7109 65.9053 51.8906 63.1914C55.0703 60.4775 56.8281 56.875 56.8281 53.0606V37.0098H39.875C39.2969 37.0098 38.8359 36.6133 38.8359 36.1211V19.2637Z" fill="black" stroke="black" stroke-width="0.00233"/>
<path d="M40.0234 18.334C39.9766 18.334 39.9297 18.3408 39.8828 18.3408V36.1211H57.875V33.5645C57.8672 25.1904 49.8359 18.334 40.0234 18.334Z" fill="white" stroke="black" stroke-width="0.00233"/>
<path d="M57.8672 37.0098H39.875C39.2969 37.0098 38.8359 36.6133 38.8359 36.1211V18.3408C38.8359 17.8555 39.2891 17.459 39.8594 17.4522H39.875C39.9062 17.4522 39.9609 17.4453 40.0234 17.4453C45.0469 17.4453 49.7891 19.127 53.3672 22.1826C56.9453 25.2383 58.9141 29.2783 58.9141 33.5645V36.1211C58.9062 36.6133 58.4453 37.0098 57.8672 37.0098ZM40.9219 35.2324H56.8281V33.5645C56.8281 29.75 55.0781 26.1543 51.8906 23.4336C48.9219 20.8975 45.0547 19.4277 40.9219 19.2432V35.2324Z" fill="black" stroke="black" stroke-width="0.00233"/>
<path d="M56.7266 36.1211H22.1719Z" fill="white"/>
<path d="M56.7266 36.1211H22.1719" stroke="black" stroke-width="0.00233"/>
<path d="M56.7266 37.0098H22.1719C21.5937 37.0098 21.1328 36.6133 21.1328 36.1211C21.1328 35.6289 21.6016 35.2324 22.1719 35.2324H56.7266C57.3047 35.2324 57.7656 35.6289 57.7656 36.1211C57.7656 36.6133 57.3047 37.0098 56.7266 37.0098Z" fill="black" stroke="black" stroke-width="0.00233"/>
<path d="M22 36.8516C22 36.8984 22.0068 36.9453 22.0068 36.9922H39.7871V19H37.2305C28.8564 19.0078 22 27.0391 22 36.8516Z" fill="black"/>
</svg>
