<svg width="80" height="70" viewBox="0 0 80 70" fill="none" xmlns="http://www.w3.org/2000/svg">
<path d="M20 18.9583C20 11.7096 26.7157 5.83333 35 5.83333C43.2843 5.83333 50 11.7096 50 18.9583M40 33.0555V18.9584C40 16.5421 37.7617 14.5833 35 14.5833C32.2387 14.5833 30.0001 16.5421 30.0001 18.9584V46.4952L23.6099 42.877C21.5692 41.7217 18.8572 42.1275 17.371 43.8104C15.996 45.3673 16.0827 47.56 17.5772 49.0303L30.0001 61.25H56.6667C57.196 57.0818 58.1443 50.05 58.8947 44.5378C59.5147 39.982 56.014 35.7802 50.867 34.9043L40 33.0555Z" stroke="black" stroke-width="2" stroke-linecap="round" stroke-linejoin="round"/>
</svg>
