<svg width="70" height="80" viewBox="0 0 70 80" fill="none" xmlns="http://www.w3.org/2000/svg">
<path d="M20.4166 46.6667H49.5833M17.5 33.3333H17.5291M29.1666 33.3333H29.1958M40.8333 33.3333H40.8625M52.5 33.3333H52.5291M15.1666 60H54.8333C58.1003 60 59.7339 60 60.9816 59.2733C62.0792 58.6343 62.9717 57.6143 63.5308 56.36C64.1666 54.934 64.1666 53.067 64.1666 49.3333V30.6667C64.1666 26.933 64.1666 25.0661 63.5308 23.6401C62.9717 22.3856 62.0792 21.3658 60.9816 20.7266C59.7339 20 58.1003 20 54.8333 20H15.1666C11.8997 20 10.2662 20 9.01837 20.7266C7.92074 21.3658 7.02836 22.3856 6.46912 23.6401C5.83331 25.0661 5.83331 26.933 5.83331 30.6667V49.3333C5.83331 53.067 5.83331 54.934 6.46912 56.36C7.02836 57.6143 7.92074 58.6343 9.01837 59.2733C10.2662 60 11.8997 60 15.1666 60Z" stroke="black" stroke-width="2" stroke-linecap="round" stroke-linejoin="round"/>
</svg>
