<svg width="80" height="70" viewBox="0 0 80 70" fill="none" xmlns="http://www.w3.org/2000/svg">
<path d="M39.7031 21.1435C39.1875 21.1435 38.7422 20.8154 38.6719 20.3643C38.5469 19.5098 37.461 11.956 38.7266 8.97558C39.2344 7.77929 41.1094 5.92675 43.5313 5.74218C44.9688 5.63281 47.0703 6.08398 48.9219 8.83203C49.6016 9.84374 50.6719 11.0264 51.9063 10.9033C52.4453 10.8486 53.0391 10.5478 53.5781 10.0488C54.0938 9.57714 54.4375 9.0371 54.5547 8.71581C55.0938 7.17773 54.711 2.71386 54.5156 1.12109C54.4531 0.635736 54.875 0.198236 55.4453 0.143549C56.0156 0.0956972 56.5313 0.44433 56.586 0.936518C56.6641 1.55859 57.3047 7.06835 56.5469 9.22851C56.1016 10.4863 54.3985 12.4482 52.1406 12.6738C51.9922 12.6875 51.8516 12.6943 51.711 12.6943C49.5781 12.6943 48.0469 11.1084 47.1172 9.7207C46.0703 8.16894 44.9219 7.42382 43.711 7.51269C42.2344 7.62206 40.9766 8.89355 40.6875 9.57714C39.7656 11.7646 40.4141 17.9375 40.7422 20.1387C40.8125 20.624 40.4141 21.0684 39.8438 21.1299C39.7891 21.1367 39.75 21.1435 39.7031 21.1435Z" fill="black" stroke="black" stroke-width="0.00233"/>
<path d="M39.875 18.3408C30.125 18.4092 22.1719 25.2314 22.1719 33.5645V53.0605C22.1719 61.4346 30.2031 68.291 40.0156 68.291C49.8281 68.291 57.8594 61.4346 57.8594 53.0605V36.1211H39.875V18.3408Z" fill="#FAFBFC" stroke="black" stroke-width="0.00233"/>
<path d="M40.0234 69.1797C35 69.1797 30.2578 67.498 26.6797 64.4424C23.1016 61.3867 21.1328 57.3467 21.1328 53.0605V33.5645C21.1328 24.7529 29.5391 17.5205 39.8672 17.4521C40.1484 17.4521 40.4141 17.541 40.6094 17.7119C40.8047 17.876 40.9141 18.1084 40.9141 18.3408V35.2324H57.8594C58.4375 35.2324 58.8984 35.6289 58.8984 36.1211V53.0605C58.8984 57.3467 56.9297 61.3936 53.3516 64.4424C49.7812 67.498 45.0469 69.1797 40.0234 69.1797ZM38.8359 19.2637C30.1328 19.79 23.2109 26.0244 23.2109 33.5645V53.0605C23.2109 56.875 24.9609 60.4707 28.1484 63.1914C31.3359 65.9121 35.5547 67.4023 40.0234 67.4023C44.4922 67.4023 48.7109 65.9053 51.8906 63.1914C55.0703 60.4775 56.8281 56.875 56.8281 53.0605V37.0098H39.875C39.2969 37.0098 38.8359 36.6133 38.8359 36.1211V19.2637Z" fill="black" stroke="black" stroke-width="0.00233"/>
<path d="M40.0234 18.334C39.9766 18.334 39.9297 18.3408 39.8828 18.3408V36.1211H57.875V33.5645C57.8672 25.1904 49.8359 18.334 40.0234 18.334Z" fill="white" stroke="black" stroke-width="0.00233"/>
<path d="M57.8672 37.0098H39.875C39.2969 37.0098 38.8359 36.6133 38.8359 36.1211V18.3408C38.8359 17.8555 39.2891 17.459 39.8594 17.4521H39.875C39.9062 17.4521 39.9609 17.4453 40.0234 17.4453C45.0469 17.4453 49.7891 19.127 53.3672 22.1826C56.9453 25.2383 58.9141 29.2783 58.9141 33.5645V36.1211C58.9062 36.6133 58.4453 37.0098 57.8672 37.0098ZM40.9219 35.2324H56.8281V33.5645C56.8281 29.75 55.0781 26.1543 51.8906 23.4336C48.9219 20.8975 45.0547 19.4277 40.9219 19.2432V35.2324Z" fill="black" stroke="black" stroke-width="0.00233"/>
<path d="M56.7266 36.1211H22.1719Z" fill="white"/>
<path d="M56.7266 36.1211H22.1719" stroke="black" stroke-width="0.00233"/>
<path d="M56.7266 37.0098H22.1719C21.5937 37.0098 21.1328 36.6133 21.1328 36.1211C21.1328 35.6289 21.6016 35.2324 22.1719 35.2324H56.7266C57.3047 35.2324 57.7656 35.6289 57.7656 36.1211C57.7656 36.6133 57.3047 37.0098 56.7266 37.0098Z" fill="black" stroke="black" stroke-width="0.00233"/>
<path d="M22 36.8516C22 36.8984 22.0068 36.9453 22.0068 36.9922H39.7871V19H37.2305C28.8564 19.0078 22 27.0391 22 36.8516Z" fill="black"/>
</svg>
