<svg width="80" height="70" viewBox="0 0 38 70" fill="none" xmlns="http://www.w3.org/2000/svg">
<path d="M18.7031 21.1435C18.1875 21.1435 17.7422 20.8154 17.6719 20.3643C17.5469 19.5098 16.461 11.956 17.7266 8.97558C18.2344 7.77929 20.1094 5.92675 22.5313 5.74218C23.9688 5.63281 26.0703 6.08398 27.9219 8.83203C28.6016 9.84374 29.6719 11.0264 30.9063 10.9033C31.4453 10.8486 32.0391 10.5478 32.5781 10.0488C33.0938 9.57714 33.4375 9.0371 33.5547 8.71581C34.0938 7.17773 33.711 2.71386 33.5156 1.12109C33.4531 0.635736 33.875 0.198236 34.4453 0.143549C35.0156 0.0956972 35.5313 0.44433 35.586 0.936518C35.6641 1.55859 36.3047 7.06835 35.5469 9.22851C35.1016 10.4863 33.3985 12.4482 31.1406 12.6738C30.9922 12.6875 30.8516 12.6943 30.711 12.6943C28.5781 12.6943 27.0469 11.1084 26.1172 9.7207C25.0703 8.16894 23.9219 7.42382 22.711 7.51269C21.2344 7.62206 19.9766 8.89355 19.6875 9.57714C18.7656 11.7646 19.4141 17.9375 19.7422 20.1387C19.8125 20.624 19.4141 21.0684 18.8438 21.1299C18.7891 21.1367 18.75 21.1435 18.7031 21.1435Z" fill="black"/>
<path d="M18.875 18.3408C9.125 18.4092 1.17188 25.2314 1.17188 33.5645V53.0606C1.17188 61.4346 9.20313 68.291 19.0156 68.291C28.8281 68.291 36.8594 61.4346 36.8594 53.0606V36.1211H18.875V18.3408Z" fill="#FAFBFC"/>
<path d="M19.0234 69.1797C14 69.1797 9.25781 67.4981 5.67969 64.4424C2.10156 61.3867 0.132812 57.3467 0.132812 53.0606V33.5645C0.132812 24.7529 8.53906 17.5205 18.8672 17.4521C19.1484 17.4521 19.4141 17.541 19.6094 17.7119C19.8047 17.876 19.9141 18.1084 19.9141 18.3408V35.2324H36.8594C37.4375 35.2324 37.8984 35.6289 37.8984 36.1211V53.0606C37.8984 57.3467 35.9297 61.3936 32.3516 64.4424C28.7813 67.4981 24.0469 69.1797 19.0234 69.1797ZM17.8359 19.2637C9.13281 19.79 2.21094 26.0244 2.21094 33.5645V53.0606C2.21094 56.875 3.96094 60.4707 7.14844 63.1914C10.3359 65.9121 14.5547 67.4024 19.0234 67.4024C23.4922 67.4024 27.7109 65.9053 30.8906 63.1914C34.0703 60.4775 35.8281 56.875 35.8281 53.0606V37.0098H18.875C18.2969 37.0098 17.8359 36.6133 17.8359 36.1211V19.2637Z" fill="black"/>
<path d="M19.0234 18.334C18.9766 18.334 18.9297 18.3408 18.8828 18.3408V36.1211H36.875V33.5645C36.8672 25.1904 28.8359 18.334 19.0234 18.334Z" fill="black"/>
<path d="M36.8672 37.0098H18.875C18.2969 37.0098 17.8359 36.6133 17.8359 36.1211V18.3408C17.8359 17.8555 18.2891 17.459 18.8594 17.4521H18.875C18.9062 17.4521 18.9609 17.4453 19.0234 17.4453C24.0469 17.4453 28.7891 19.127 32.3672 22.1826C35.9453 25.2383 37.9141 29.2783 37.9141 33.5645V36.1211C37.9062 36.6133 37.4453 37.0098 36.8672 37.0098ZM19.9219 35.2324H35.8281V33.5645C35.8281 29.75 34.0781 26.1543 30.8906 23.4336C27.9219 20.8975 24.0547 19.4277 19.9219 19.2432V35.2324Z" fill="black"/>
<path d="M35.7266 37.0098H1.17187C0.593749 37.0098 0.132812 36.6133 0.132812 36.1211C0.132812 35.6289 0.601562 35.2324 1.17187 35.2324H35.7266C36.3047 35.2324 36.7656 35.6289 36.7656 36.1211C36.7656 36.6133 36.3047 37.0098 35.7266 37.0098Z" fill="black"/>
<path d="M36.8672 37.0098H18.875C18.2969 37.0098 17.8359 36.6133 17.8359 36.1211V18.3408C17.8359 17.8555 18.2891 17.459 18.8594 17.4521H18.875C18.9062 17.4521 18.9609 17.4453 19.0234 17.4453C24.0469 17.4453 28.7891 19.127 32.3672 22.1826C35.9453 25.2383 37.9141 29.2783 37.9141 33.5645V36.1211C37.9062 36.6133 37.4453 37.0098 36.8672 37.0098ZM19.9219 35.2324H35.8281V33.5645C35.8281 29.75 34.0781 26.1543 30.8906 23.4336C27.9219 20.8975 24.0547 19.4277 19.9219 19.2432V35.2324Z" fill="black"/>
</svg>
