<svg width="24" height="24" viewBox="0 0 24 24" fill="none" xmlns="http://www.w3.org/2000/svg">
<g clip-path="url(#clip0_403_3305)">
<path d="M22 15.9994V20.9994C22 21.2646 21.8946 21.519 21.7071 21.7065C21.5196 21.894 21.2652 21.9994 21 21.9994H3C2.73478 21.9994 2.48043 21.894 2.29289 21.7065C2.10536 21.519 2 21.2646 2 20.9994V15.9994H0V20.9994C0 21.795 0.31607 22.5581 0.87868 23.1207C1.44129 23.6833 2.20435 23.9994 3 23.9994H21C21.7956 23.9994 22.5587 23.6833 23.1213 23.1207C23.6839 22.5581 24 21.795 24 20.9994V15.9994H22Z" fill="white"/>
<path d="M11.9669 -0.000232767C11.5731 -0.00131837 11.1829 0.0753242 10.8188 0.225302C10.4547 0.37528 10.1237 0.595645 9.8449 0.873767L5.9259 4.79277L7.3399 6.20677L10.9739 2.57377L10.9999 18.9998H12.9999L12.9739 2.58777L16.5929 6.20677L18.0069 4.79277L14.0879 0.873767C13.8093 0.595676 13.4785 0.375322 13.1145 0.225341C12.7506 0.0753607 12.3606 -0.00129599 11.9669 -0.000232767Z" fill="white"/>
</g>
<defs>
<clipPath id="clip0_403_3305">
<rect width="24" height="24" fill="white"/>
</clipPath>
</defs>
</svg>
